Coordinates
version=1
nRows=11
nColumns=40
inDegrees=yes

Units are S.I. units (second, meters, Newtons, ...)
Angles are in degrees.

endheader
time	pelvis_tilt	pelvis_list	pelvis_rotation	pelvis_tx	pelvis_ty	pelvis_tz	hip_flexion_r	hip_adduction_r	hip_rotation_r	knee_angle_r	knee_angle_r_beta	ankle_angle_r	subtalar_angle_r	mtp_angle_r	hip_flexion_l	hip_adduction_l	hip_rotation_l	knee_angle_l	knee_angle_l_beta	ankle_angle_l	subtalar_angle_l	mtp_angle_l	lumbar_extension	lumbar_bending	lumbar_rotation	arm_flex_r	arm_add_r	arm_rot_r	elbow_flex_r	pro_sup_r	wrist_flex_r	wrist_dev_r	arm_flex_l	arm_add_l	arm_rot_l	elbow_flex_l	pro_sup_l	wrist_flex_l	wrist_dev_l
      7.07750000	     -4.25878133	     -4.26864766	      2.24155301	      0.73397544	      0.92401693	      0.47764694	      1.63399708	     -0.80274633	    -13.79819742	     26.05010711	     26.05010711	     16.66752616	     -3.07439995	     -4.89334488	     25.44840271	     -5.32344789	     -0.65394858	     23.30239763	     23.30239763	      5.30040134	    -11.99031766	      0.51401020	     -7.54790763	      4.50145905	      2.46171663	     21.01754001	    -16.77603492	     -2.58434191	     73.22810791	     44.87802262	      0.00000000	      0.00000000	     -3.59495833	     -9.08363031	    -11.71608221	     30.60950262	     46.44789451	      0.00000000	      0.00000000
      7.09171429	     -4.23610551	     -4.16597223	      2.17105082	      0.73437224	      0.92488272	      0.47465798	      2.60592890	     -1.32165746	    -13.09323299	     28.50045621	     28.50045621	     14.09564837	     -5.91456595	     -9.86526085	     24.85439872	     -5.05953110	     -0.78932872	     23.35598809	     23.35598809	      6.13856224	    -11.93873922	      0.89918458	     -7.48746490	      4.39604635	      1.64662878	     20.67894622	    -16.46868006	     -0.68433785	     68.88595061	     44.98725769	      0.00000000	      0.00000000	     -3.83222334	     -9.40357502	    -10.04634379	     31.36957900	     46.18419713	      0.00000000	      0.00000000
      7.10592857	     -4.23827065	     -3.95046418	      2.08122761	      0.73465775	      0.92549096	      0.47157322	      4.06946227	     -2.19859817	    -12.75773135	     31.97932422	     31.97932422	     12.90623875	     -7.35782120	    -10.83729250	     24.23917888	     -4.68024052	     -0.98446244	     23.30592072	     23.30592072	      6.65229500	    -11.89492503	      0.65678559	     -7.55848463	      4.20193560	      1.69388917	     18.72780998	    -16.58084292	     -0.33967673	     67.59376188	     45.01460187	      0.00000000	      0.00000000	     -3.41467401	     -9.39729232	     -9.91182825	     31.99597863	     46.17034410	      0.00000000	      0.00000000
      7.12014286	     -4.25155309	     -3.82129627	      1.99678724	      0.73483267	      0.92586236	      0.46866675	      5.71932454	     -2.86576407	    -12.15752154	     35.59083463	     35.59083463	     10.98093287	     -9.85921838	    -12.42092362	     23.69249169	     -4.36815928	     -1.04979980	     23.32180804	     23.32180804	      7.15545388	    -12.09158051	      0.43498062	     -7.55185530	      4.08555572	      1.80045686	     16.85644327	    -16.67799147	      0.01534831	     65.49899745	     45.07123344	      0.00000000	      0.00000000	     -2.96985543	     -9.42392101	     -9.54595183	     32.87633286	     46.12566256	      0.00000000	      0.00000000
      7.13435714	     -4.06600191	     -3.64046305	      1.94111749	      0.73500867	      0.92636525	      0.46579088	      7.14076701	     -3.55521133	    -11.61248045	     38.93896943	     38.93896943	      7.33417956	    -13.48693069	    -17.54214695	     22.96071888	     -4.00949696	     -1.10089447	     23.38859045	     23.38859045	      7.58288318	    -12.27000562	      0.20718457	     -7.76351215	      3.95112355	      1.14503197	     16.05924427	    -16.04133166	      0.53733298	     61.64914343	     45.20011065	      0.00000000	      0.00000000	     -3.29258500	     -9.88291992	     -7.75921143	     34.63085257	     45.89179178	      0.00000000	      0.00000000
      7.14857143	     -3.94827012	     -3.40464787	      1.84355496	      0.73502440	      0.92654985	      0.46293129	      9.01094973	     -4.43860829	    -11.24200748	     43.05424955	     43.05424955	      5.32726386	    -15.33524151	    -17.48695841	     22.33107197	     -3.60051968	     -1.19486453	     23.50047012	     23.50047012	      8.06085004	    -12.40280840	      0.01160679	     -7.95563743	      3.80563099	      1.16646754	     13.99519825	    -16.08569916	      0.85304086	     60.19522466	     45.23045883	      0.00000000	      0.00000000	     -2.69603847	     -9.91980484	     -7.63853062	     35.24190413	     45.88839351	      0.00000000	      0.00000000
      7.16278571	     -3.81423526	     -3.25858645	      1.76341688	      0.73490752	      0.92668746	      0.46017406	     10.97112656	     -5.13167017	    -10.80810793	     47.15693110	     47.15693110	      3.20880951	    -17.31653826	    -16.24894420	     21.73301719	     -3.24363161	     -1.08797957	     23.65441548	     23.65441548	      8.54123312	    -12.84336118	      0.04200102	     -8.12403642	      3.75063955	      1.07562872	     12.63084996	    -15.76139986	      0.90354789	     56.39752899	     45.36249587	      0.00000000	      0.00000000	     -2.44581189	    -10.18811844	     -6.35204661	     36.79210443	     45.75346308	      0.00000000	      0.00000000
      7.17700000	     -3.68082516	     -3.07102589	      1.64641391	      0.73472792	      0.92670105	      0.45754263	     13.07759938	     -5.90717987	    -10.47434965	     51.39084957	     51.39084957	      1.86579544	    -18.20404006	    -12.60266840	     21.16196921	     -2.87882331	     -1.08524373	     23.86461213	     23.86461213	      9.06228957	    -13.13441767	      0.04858915	     -8.31669370	      3.68807633	      1.04753293	     11.00200535	    -15.53336303	      0.97871807	     53.27765825	     45.46463579	      0.00000000	      0.00000000	     -2.08364053	    -10.44610233	     -5.32212419	     38.20698052	     45.66433742	      0.00000000	      0.00000000
      7.19121429	     -3.55241437	     -2.88658493	      1.52354135	      0.73441322	      0.92666735	      0.45507304	     15.30916798	     -6.57657130	    -10.06414688	     55.58557638	     55.58557638	      1.37847436	    -18.62895062	     -6.10140136	     20.61191944	     -2.53507624	     -1.12366952	     24.07565254	     24.07565254	      9.61722122	    -13.31707979	      0.12281467	     -8.48906358	      3.63572604	      0.78384265	      9.62720172	    -15.04511950	      0.82092987	     49.81861509	     45.58714604	      0.00000000	      0.00000000	     -1.85608553	    -10.81879865	     -4.07539571	     39.68716721	     45.57186262	      0.00000000	      0.00000000
      7.20542857	     -3.40370854	     -2.72654305	      1.36418953	      0.73404839	      0.92668325	      0.45281438	     17.50164396	     -7.15172202	     -9.65997329	     59.42988465	     59.42988465	      1.20981297	    -18.93193494	      0.99094889	     20.03431480	     -2.24127790	     -1.19510017	     24.27359128	     24.27359128	     10.18248234	    -13.47208761	      0.20217036	     -8.70747784	      3.62325657	      0.77043822	      8.11763884	    -14.67802440	      0.55238298	     46.43034307	     45.70764984	      0.00000000	      0.00000000	     -1.45021474	    -11.13677306	     -3.08005140	     41.17876680	     45.52985166	      0.00000000	      0.00000000
      7.21964286	     -3.23003239	     -2.55417412	      1.19772778	      0.73366611	      0.92682358	      0.45065718	     19.53760603	     -7.72765091	     -9.37628697	     62.72301015	     62.72301015	      1.10062145	    -19.18530799	      7.44708331	     19.38243552	     -1.93262450	     -1.27277292	     24.37834717	     24.37834717	     10.69455631	    -13.65885502	      0.31324737	     -8.95557026	      3.60937781	      0.82060824	      6.53785623	    -14.34717733	      0.23654903	     43.07287686	     45.82924469	      0.00000000	      0.00000000	     -0.93664133	    -11.36446212	     -2.38352207	     42.64890223	     45.52014441	      0.00000000	      0.00000000
